<?xml version="1.0" standalone="no"?>
<!DOCTYPE svg PUBLIC "-//W3C//DTD SVG 20010904//EN"
 "http://www.w3.org/TR/2001/REC-SVG-20010904/DTD/svg10.dtd">
<svg version="1.0" xmlns="http://www.w3.org/2000/svg"
 width="128.000000pt" height="128.000000pt" viewBox="0 0 128.000000 128.000000"
 preserveAspectRatio="xMidYMid meet">

<g transform="translate(0.000000,128.000000) scale(0.100000,-0.100000)"
fill="#000000" stroke="none">
<path d="M108 673 l-3 -528 -25 -42 c-14 -23 -35 -48 -48 -54 -12 -7 -22 -18
-22 -26 0 -11 105 -13 589 -13 l590 0 45 47 46 47 0 548 0 548 -585 0 -584 0
-3 -527z m160 425 c32 -32 -3 -88 -41 -67 -30 17 -16 79 18 79 6 0 16 -5 23
-12z m896 -4 c19 -19 20 -36 4 -52 -26 -26 -68 -9 -68 28 0 11 29 40 40 40 5
0 16 -7 24 -16z m-896 -216 c30 -30 -2 -93 -36 -71 -21 13 -27 50 -12 69 15
17 32 18 48 2z m897 -1 c21 -16 15 -61 -10 -71 -40 -15 -69 32 -39 65 20 23
25 23 49 6z m-889 -232 c4 -8 3 -27 0 -41 -5 -20 -12 -25 -34 -22 -47 5 -39
78 10 78 10 0 21 -7 24 -15z m894 0 c18 -22 -2 -65 -30 -65 -28 0 -48 43 -30
65 7 8 20 15 30 15 10 0 23 -7 30 -15z m-902 -217 c32 -32 -9 -96 -44 -67 -26
22 -11 79 21 79 6 0 16 -5 23 -12z m906 -20 c8 -14 6 -22 -10 -38 -34 -34 -76
-2 -53 41 12 24 47 22 63 -3z m-899 -232 c0 -36 -26 -56 -49 -37 -16 14 -22
52 -9 65 4 4 19 6 33 4 20 -2 25 -8 25 -32z m895 19 c23 -28 -9 -72 -45 -59
-36 14 -24 74 15 74 10 0 23 -7 30 -15z"/>
</g>
</svg>
